<svg xmlns="http://www.w3.org/2000/svg" width="32" height="32" viewBox="0 0 32 32" shape-rendering="crispEdges">
  <rect width="32" height="32" fill="#c1a069"/>
  <g opacity="0.55">
    <rect x="4" y="3" width="12" height="9" fill="#ccb07c"/>
    <rect x="20" y="14" width="10" height="9" fill="#cbae78"/>
    <rect x="2" y="20" width="9" height="9" fill="#cbae78"/>
    <rect x="22" y="2" width="9" height="7" fill="#d0b481"/>
  </g>
  <g opacity="0.5">
    <rect x="17" y="2" width="11" height="8" fill="#a8865a"/>
    <rect x="0" y="13" width="10" height="8" fill="#a8865a"/>
    <rect x="13" y="22" width="12" height="8" fill="#9c7a4d"/>
    <rect x="11" y="9" width="8" height="7" fill="#b09063"/>
  </g>
  <g fill="#8a6d45">
    <rect x="8" y="6" width="2" height="1"/><rect x="22" y="9" width="2" height="1"/><rect x="6" y="26" width="2" height="1"/>
    <rect x="15" y="16" width="2" height="1"/><rect x="27" y="27" width="2" height="1"/><rect x="3" y="9" width="1" height="1"/>
    <rect x="29" y="13" width="1" height="1"/><rect x="13" y="3" width="1" height="1"/>
  </g>
  <g>
    <rect x="11" y="9" width="3" height="2" fill="#b9b3a4"/><rect x="11" y="9" width="3" height="1" fill="#d6d0c0"/><rect x="11" y="11" width="3" height="1" fill="#7d7866"/>
    <rect x="24" y="18" width="3" height="2" fill="#b9b3a4"/><rect x="24" y="18" width="3" height="1" fill="#d6d0c0"/><rect x="24" y="20" width="3" height="1" fill="#7d7866"/>
    <rect x="6" y="22" width="2" height="2" fill="#aca695"/><rect x="6" y="22" width="2" height="1" fill="#cbc4b4"/><rect x="6" y="24" width="2" height="1" fill="#76715f"/>
    <rect x="18" y="5" width="2" height="2" fill="#aca695"/><rect x="18" y="5" width="2" height="1" fill="#cbc4b4"/>
    <rect x="2" y="16" width="2" height="1" fill="#b3ad9c"/>
  </g>
</svg>
