<svg xmlns="http://www.w3.org/2000/svg" width="32" height="32" viewBox="0 0 32 32" shape-rendering="crispEdges">
  <rect width="32" height="32" fill="#8a5a39"/>
  <rect x="0" y="0" width="32" height="10" fill="#9c6a44"/>
  <rect x="0" y="11" width="32" height="10" fill="#a06d46"/>
  <rect x="0" y="22" width="32" height="10" fill="#9c6a44"/>
  <g fill="#c08a57"><rect x="0" y="0" width="32" height="2"/><rect x="0" y="11" width="32" height="2"/><rect x="0" y="22" width="32" height="2"/></g>
  <g fill="#5f3d27"><rect x="0" y="9" width="32" height="1"/><rect x="0" y="20" width="32" height="1"/><rect x="0" y="31" width="32" height="1"/></g>
  <g fill="#4a3120"><rect x="0" y="10" width="32" height="1"/><rect x="0" y="21" width="32" height="1"/></g>
  <g fill="#86562f" opacity="0.5">
    <rect x="3" y="4" width="14" height="1"/><rect x="18" y="6" width="11" height="1"/>
    <rect x="5" y="15" width="12" height="1"/><rect x="19" y="16" width="10" height="1"/>
    <rect x="2" y="26" width="13" height="1"/><rect x="17" y="27" width="12" height="1"/>
  </g>
  <g fill="#4a3120">
    <rect x="4" y="4" width="2" height="2"/><rect x="24" y="4" width="2" height="2"/>
    <rect x="4" y="15" width="2" height="2"/><rect x="24" y="15" width="2" height="2"/>
    <rect x="4" y="26" width="2" height="2"/><rect x="24" y="26" width="2" height="2"/>
  </g>
  <g fill="#7a5230">
    <rect x="4" y="4" width="1" height="1"/><rect x="24" y="4" width="1" height="1"/>
    <rect x="4" y="15" width="1" height="1"/><rect x="24" y="15" width="1" height="1"/>
    <rect x="4" y="26" width="1" height="1"/><rect x="24" y="26" width="1" height="1"/>
  </g>
</svg>
