<svg xmlns="http://www.w3.org/2000/svg" width="32" height="32" viewBox="0 0 32 32" shape-rendering="crispEdges">
  <rect width="32" height="32" fill="#5fa048"/>
  <g opacity="0.5">
    <rect x="0" y="4" width="11" height="8" fill="#69ac52"/>
    <rect x="18" y="0" width="14" height="7" fill="#70b658"/>
    <rect x="22" y="18" width="10" height="10" fill="#69ac52"/>
    <rect x="2" y="20" width="9" height="9" fill="#57953f"/>
    <rect x="12" y="11" width="9" height="7" fill="#65a84e"/>
  </g>
  <g opacity="0.4">
    <rect x="13" y="2" width="7" height="6" fill="#57953f"/>
    <rect x="0" y="14" width="6" height="6" fill="#4f8a3a"/>
    <rect x="26" y="9" width="6" height="7" fill="#57953f"/>
    <rect x="14" y="24" width="7" height="6" fill="#4f8a3a"/>
  </g>
  <g fill="#4a8636">
    <rect x="3" y="9" width="1" height="3"/><rect x="5" y="8" width="1" height="4"/><rect x="4" y="7" width="1" height="3"/>
    <rect x="15" y="5" width="1" height="3"/><rect x="17" y="4" width="1" height="4"/><rect x="16" y="3" width="1" height="3"/>
    <rect x="24" y="12" width="1" height="3"/><rect x="26" y="11" width="1" height="4"/>
    <rect x="9" y="24" width="1" height="3"/><rect x="11" y="23" width="1" height="4"/><rect x="10" y="22" width="1" height="3"/>
    <rect x="21" y="26" width="1" height="3"/><rect x="23" y="25" width="1" height="4"/>
    <rect x="29" y="18" width="1" height="3"/><rect x="7" y="17" width="1" height="3"/>
  </g>
  <g fill="#83c266">
    <rect x="4" y="6" width="1" height="3"/><rect x="16" y="2" width="1" height="3"/>
    <rect x="25" y="9" width="1" height="3"/><rect x="10" y="21" width="1" height="3"/>
    <rect x="22" y="24" width="1" height="3"/><rect x="19" y="13" width="1" height="3"/>
    <rect x="1" y="12" width="1" height="3"/><rect x="30" y="25" width="1" height="3"/>
    <rect x="8" y="15" width="1" height="3"/><rect x="13" y="29" width="1" height="2"/>
  </g>
  <g fill="#a6da82">
    <rect x="16" y="1" width="1" height="1"/><rect x="25" y="8" width="1" height="1"/>
    <rect x="10" y="20" width="1" height="1"/><rect x="4" y="5" width="1" height="1"/>
    <rect x="22" y="23" width="1" height="1"/>
  </g>
</svg>
