<svg xmlns="http://www.w3.org/2000/svg" width="32" height="32" viewBox="0 0 32 32" shape-rendering="crispEdges">
  <rect width="32" height="32" fill="#5a5e50"/>
  <g fill="#6d7261">
    <rect x="1" y="1" width="13" height="9"/><rect x="15" y="1" width="16" height="9"/>
    <rect x="1" y="12" width="8" height="9"/><rect x="10" y="12" width="13" height="9"/><rect x="24" y="12" width="7" height="9"/>
    <rect x="1" y="23" width="13" height="8"/><rect x="15" y="23" width="16" height="8"/>
  </g>
  <g fill="#868b78">
    <rect x="1" y="1" width="13" height="1"/><rect x="15" y="1" width="16" height="1"/>
    <rect x="1" y="12" width="8" height="1"/><rect x="10" y="12" width="13" height="1"/><rect x="24" y="12" width="7" height="1"/>
    <rect x="1" y="23" width="13" height="1"/><rect x="15" y="23" width="16" height="1"/>
  </g>
  <g fill="#474b3e">
    <rect x="1" y="9" width="13" height="1"/><rect x="15" y="9" width="16" height="1"/>
    <rect x="1" y="20" width="8" height="1"/><rect x="10" y="20" width="13" height="1"/><rect x="24" y="20" width="7" height="1"/>
    <rect x="1" y="30" width="13" height="1"/><rect x="15" y="30" width="16" height="1"/>
  </g>
  <g fill="#7a9450"><rect x="4" y="2" width="2" height="1"/><rect x="20" y="13" width="3" height="1"/><rect x="27" y="24" width="2" height="1"/><rect x="11" y="24" width="2" height="1"/></g>
</svg>
