<svg xmlns="http://www.w3.org/2000/svg" width="128" height="192" viewBox="0 0 128 192">
  <defs>
    <g id="shadow"><ellipse cx="16" cy="43" rx="16" ry="4.5" fill="#000000" opacity=".3"/></g>
    <g id="front-base">
      <rect x="4" y="15" width="24" height="25" fill="#243140"/>
      <rect x="5" y="16" width="22" height="23" fill="#3f6f97"/>
      <rect x="5" y="16" width="6" height="23" fill="#5687ad"/>
      <rect x="23" y="16" width="4" height="23" fill="#2e567a"/>
      <rect x="11" y="20" width="10" height="13" fill="#436f93"/>
      <rect x="3" y="17" width="5" height="16" fill="#243140"/>
      <rect x="4" y="18" width="4" height="14" fill="#3f6f97"/>
      <rect x="24" y="17" width="5" height="16" fill="#243140"/>
      <rect x="25" y="18" width="4" height="14" fill="#345f86"/>
      <rect x="4" y="31" width="4" height="4" fill="#f1c49c"/>
      <rect x="25" y="31" width="4" height="4" fill="#e2b489"/>
      <rect x="6" y="18" width="20" height="3" fill="#6d4a36"/>
      <rect x="13" y="19" width="4" height="3" fill="#d3a74d"/>
      <rect x="5" y="37" width="22" height="3" fill="#2b333d"/>
      <rect x="6" y="2" width="20" height="16" fill="#243140"/>
      <rect x="7" y="4" width="18" height="13" fill="#f1c49c"/>
      <rect x="21" y="4" width="4" height="13" fill="#e0ad82"/>
      <rect x="6" y="2" width="20" height="6" fill="#6b4a32"/>
      <rect x="6" y="2" width="20" height="2" fill="#7d5840"/>
      <rect x="6" y="6" width="3" height="6" fill="#6b4a32"/>
      <rect x="23" y="6" width="3" height="6" fill="#5a3e2a"/>
      <rect x="10" y="10" width="2" height="2" fill="#243140"/>
      <rect x="20" y="10" width="2" height="2" fill="#243140"/>
      <rect x="13" y="14" width="6" height="1" fill="#b9755f"/>
    </g>
    <g id="back-base">
      <rect x="4" y="15" width="24" height="25" fill="#243140"/>
      <rect x="5" y="16" width="22" height="23" fill="#37618a"/>
      <rect x="5" y="16" width="6" height="23" fill="#45719a"/>
      <rect x="23" y="16" width="4" height="23" fill="#2b517a"/>
      <rect x="3" y="17" width="5" height="16" fill="#243140"/>
      <rect x="4" y="18" width="4" height="14" fill="#37618a"/>
      <rect x="24" y="17" width="5" height="16" fill="#243140"/>
      <rect x="25" y="18" width="4" height="14" fill="#2f567f"/>
      <rect x="4" y="31" width="4" height="4" fill="#e2b489"/>
      <rect x="25" y="31" width="4" height="4" fill="#d3a47a"/>
      <rect x="5" y="37" width="22" height="3" fill="#2b333d"/>
      <rect x="6" y="2" width="20" height="16" fill="#243140"/>
      <rect x="7" y="3" width="18" height="14" fill="#6b4a32"/>
      <rect x="7" y="3" width="18" height="2" fill="#7d5840"/>
      <rect x="11" y="9" width="10" height="5" fill="#5a3e2a"/>
      <rect x="12" y="15" width="8" height="2" fill="#e0ad82"/>
    </g>
    <g id="side-base">
      <rect x="6" y="18" width="5" height="14" fill="#2e567a"/>
      <rect x="8" y="15" width="16" height="25" fill="#243140"/>
      <rect x="9" y="16" width="14" height="23" fill="#3f6f97"/>
      <rect x="9" y="16" width="5" height="23" fill="#5687ad"/>
      <rect x="20" y="16" width="3" height="23" fill="#2e567a"/>
      <rect x="5" y="20" width="5" height="13" fill="#6d4a36"/>
      <rect x="6" y="23" width="3" height="3" fill="#d3a74d"/>
      <rect x="8" y="37" width="16" height="3" fill="#2b333d"/>
      <rect x="8" y="2" width="18" height="16" fill="#243140"/>
      <rect x="9" y="4" width="17" height="13" fill="#f1c49c"/>
      <rect x="25" y="9" width="2" height="3" fill="#e8b389"/>
      <rect x="8" y="2" width="18" height="6" fill="#6b4a32"/>
      <rect x="8" y="2" width="18" height="2" fill="#7d5840"/>
      <rect x="8" y="6" width="4" height="7" fill="#5a3e2a"/>
      <rect x="20" y="10" width="2" height="2" fill="#243140"/>
      <rect x="22" y="14" width="3" height="1" fill="#b9755f"/>
    </g>
  </defs>

  <g transform="translate(0 0)"><use href="#shadow"/><use href="#front-base"/><rect x="5" y="37" width="8" height="8" fill="#1f2224"/><rect x="18" y="37" width="8" height="8" fill="#2b2d2f"/><rect x="4" y="44" width="11" height="3" fill="#5b392f"/><rect x="17" y="44" width="11" height="3" fill="#5b392f"/></g>
  <g transform="translate(32 1)"><use href="#shadow"/><use href="#front-base"/></g>
  <g transform="translate(64 0)"><use href="#shadow"/><use href="#front-base"/><rect x="5" y="37" width="8" height="8" fill="#1f2224"/><rect x="18" y="37" width="8" height="8" fill="#2b2d2f"/><rect x="4" y="44" width="11" height="3" fill="#5b392f"/><rect x="17" y="44" width="11" height="3" fill="#5b392f"/></g>
  <g transform="translate(96 1)"><use href="#shadow"/><use href="#front-base"/></g>

  <g transform="translate(0 48)"><use href="#shadow"/><g transform="translate(32 0) scale(-1 1)"><use href="#side-base"/></g></g>
  <g transform="translate(32 49)"><use href="#shadow"/><g transform="translate(32 0) scale(-1 1)"><use href="#side-base"/></g></g>
  <g transform="translate(64 48)"><use href="#shadow"/><g transform="translate(32 0) scale(-1 1)"><use href="#side-base"/></g></g>
  <g transform="translate(96 49)"><use href="#shadow"/><g transform="translate(32 0) scale(-1 1)"><use href="#side-base"/></g></g>

  <g transform="translate(0 96)"><use href="#shadow"/><use href="#side-base"/></g>
  <g transform="translate(32 97)"><use href="#shadow"/><use href="#side-base"/></g>
  <g transform="translate(64 96)"><use href="#shadow"/><use href="#side-base"/></g>
  <g transform="translate(96 97)"><use href="#shadow"/><use href="#side-base"/></g>

  <g transform="translate(0 144)"><use href="#shadow"/><use href="#back-base"/><rect x="5" y="37" width="8" height="8" fill="#1f2224"/><rect x="18" y="37" width="8" height="8" fill="#2b2d2f"/><rect x="4" y="44" width="11" height="3" fill="#5b392f"/><rect x="17" y="44" width="11" height="3" fill="#5b392f"/></g>
  <g transform="translate(32 145)"><use href="#shadow"/><use href="#back-base"/><rect x="5" y="37" width="8" height="11" fill="#1f2224"/><rect x="18" y="37" width="8" height="8" fill="#2b2d2f"/><rect x="4" y="47" width="11" height="3" fill="#5b392f"/><rect x="17" y="44" width="11" height="3" fill="#5b392f"/></g>
  <g transform="translate(64 144)"><use href="#shadow"/><use href="#back-base"/><rect x="5" y="37" width="8" height="8" fill="#1f2224"/><rect x="18" y="37" width="8" height="8" fill="#2b2d2f"/><rect x="4" y="44" width="11" height="3" fill="#5b392f"/><rect x="17" y="44" width="11" height="3" fill="#5b392f"/></g>
  <g transform="translate(96 145)"><use href="#shadow"/><use href="#back-base"/><rect x="5" y="37" width="8" height="8" fill="#1f2224"/><rect x="18" y="37" width="8" height="11" fill="#2b2d2f"/><rect x="4" y="44" width="11" height="3" fill="#5b392f"/><rect x="17" y="47" width="11" height="3" fill="#5b392f"/></g>
</svg>
